<svg xmlns="http://www.w3.org/2000/svg" width="183.233" height="49.5" viewBox="0 0 183.233 49.5">
  <g id="Raggruppa_4" data-name="Raggruppa 4" transform="translate(-202 -32.75)">
    <path id="Tracciato_1" data-name="Tracciato 1" d="M-662.663,513.872a4.473,4.473,0,0,1-4.473,4.473,4.473,4.473,0,0,1-4.473-4.473,4.473,4.473,0,0,1,4.473-4.473,4.473,4.473,0,0,1,4.473,4.473" transform="translate(893.309 -436.095)" fill="#fff" opacity="0.507"/>
    <path id="Tracciato_2" data-name="Tracciato 2" d="M-725.088,452.5a4.473,4.473,0,0,1-4.473,4.473,4.473,4.473,0,0,1-4.473-4.473,4.473,4.473,0,0,1,4.473-4.473,4.473,4.473,0,0,1,4.473,4.473" transform="translate(936.034 -394.087)" fill="#fff" opacity="0.507"/>
    <path id="Tracciato_3" data-name="Tracciato 3" d="M-705.314,484.3a7.291,7.291,0,0,1-7.291,7.292A7.291,7.291,0,0,1-719.9,484.3a7.291,7.291,0,0,1,7.291-7.291,7.291,7.291,0,0,1,7.291,7.291" transform="translate(926.358 -413.929)" fill="#fff" opacity="0.507"/>
    <path id="Tracciato_4" data-name="Tracciato 4" d="M-705.314,405.489a7.291,7.291,0,0,1-7.291,7.291,7.291,7.291,0,0,1-7.291-7.291,7.291,7.291,0,0,1,7.291-7.291,7.291,7.291,0,0,1,7.291,7.291" transform="translate(926.358 -359.985)" fill="#fff" opacity="0.507"/>
    <path id="Tracciato_5" data-name="Tracciato 5" d="M-665.963,445.244a7.291,7.291,0,0,1-7.291,7.291,7.291,7.291,0,0,1-7.291-7.291,7.291,7.291,0,0,1,7.291-7.291,7.291,7.291,0,0,1,7.291,7.291" transform="translate(899.425 -387.195)" fill="#fff" opacity="0.872"/>
    <path id="Tracciato_6" data-name="Tracciato 6" d="M-609.255,452.5a4.473,4.473,0,0,0,4.473,4.473,4.473,4.473,0,0,0,4.473-4.473,4.473,4.473,0,0,0-4.473-4.473,4.473,4.473,0,0,0-4.473,4.473" transform="translate(850.63 -394.087)" fill="#fff" opacity="0.507"/>
    <path id="Tracciato_7" data-name="Tracciato 7" d="M-641.253,484.3a7.291,7.291,0,0,0,7.291,7.292,7.291,7.291,0,0,0,7.291-7.292,7.291,7.291,0,0,0-7.291-7.291,7.291,7.291,0,0,0-7.291,7.291" transform="translate(872.531 -413.929)" fill="#fff" opacity="0.507"/>
    <path id="Tracciato_8" data-name="Tracciato 8" d="M-641.253,405.489a7.291,7.291,0,0,0,7.291,7.291,7.291,7.291,0,0,0,7.291-7.291,7.291,7.291,0,0,0-7.291-7.291,7.291,7.291,0,0,0-7.291,7.291" transform="translate(872.531 -359.985)" fill="#fff" opacity="0.507"/>
    <path id="Tracciato_9" data-name="Tracciato 9" d="M-664.009,385.62l-3.327-3.327a1.852,1.852,0,0,0-2.619,0l-3.327,3.327a1.852,1.852,0,0,0,0,2.619l3.327,3.327a1.851,1.851,0,0,0,2.619,0l3.327-3.327a1.852,1.852,0,0,0,0-2.619" transform="translate(894.825 -348.728)" fill="#fff"/>
    <path id="Tracciato_10" data-name="Tracciato 10" d="M-551.442,526.753c-.023-.015-.06-.043-.112-.086a1.459,1.459,0,0,0-.192-.129,1.63,1.63,0,0,0-.255-.119.871.871,0,0,0-.305-.052,1.053,1.053,0,0,0-.332.046.684.684,0,0,0-.229.123.485.485,0,0,0-.133.174.469.469,0,0,0-.043.194.317.317,0,0,0,.09.23.79.79,0,0,0,.239.161,2.4,2.4,0,0,0,.338.123q.189.055.386.116t.386.137a1.443,1.443,0,0,1,.338.188.9.9,0,0,1,.239.268.748.748,0,0,1,.09.378,1.013,1.013,0,0,1-.106.465,1.084,1.084,0,0,1-.291.356,1.349,1.349,0,0,1-.433.228,1.726,1.726,0,0,1-.534.081,1.711,1.711,0,0,1-.377-.042,1.746,1.746,0,0,1-.358-.125,1.7,1.7,0,0,1-.321-.2,1.541,1.541,0,0,1-.266-.269.116.116,0,0,1-.03-.078.1.1,0,0,1,.043-.073l.193-.161a.114.114,0,0,1,.08-.031.107.107,0,0,1,.071.043l.032.032a1.136,1.136,0,0,0,.233.2,1.653,1.653,0,0,0,.261.139,1.466,1.466,0,0,0,.25.082.946.946,0,0,0,.2.027,1.262,1.262,0,0,0,.305-.039.989.989,0,0,0,.286-.12.7.7,0,0,0,.212-.2.507.507,0,0,0,.083-.289.354.354,0,0,0-.082-.236.714.714,0,0,0-.221-.168,1.93,1.93,0,0,0-.326-.129l-.4-.121a3.957,3.957,0,0,1-.5-.18,1.467,1.467,0,0,1-.345-.207.721.721,0,0,1-.2-.254.76.76,0,0,1-.063-.316.92.92,0,0,1,.089-.406.935.935,0,0,1,.252-.318,1.188,1.188,0,0,1,.394-.209,1.671,1.671,0,0,1,.516-.075,1.386,1.386,0,0,1,.32.039,1.855,1.855,0,0,1,.323.109,1.706,1.706,0,0,1,.3.166,1.246,1.246,0,0,1,.238.214.116.116,0,0,1,.035.077.1.1,0,0,1-.038.077l-.173.166a.1.1,0,0,1-.079.034.112.112,0,0,1-.075-.036" transform="translate(812.575 -447.395)" fill="#fff"/>
    <path id="Tracciato_11" data-name="Tracciato 11" d="M-542.946,526.187a.11.11,0,0,1,.028-.076.1.1,0,0,1,.079-.032h.254a.117.117,0,0,1,.078.029.1.1,0,0,1,.034.079v3.41c0,.071-.037.107-.112.107h-.254a.1.1,0,0,1-.107-.107Z" transform="translate(805.246 -447.512)" fill="#fff"/>
    <path id="Tracciato_12" data-name="Tracciato 12" d="M-536.257,529.7a.113.113,0,0,1-.093-.054l-2.131-2.856v2.8q0,.107-.112.107h-.246a.1.1,0,0,1-.107-.107v-3.4a.114.114,0,0,1,.029-.081.1.1,0,0,1,.078-.032h.327a.122.122,0,0,1,.1.054l2.077,2.761V526.17a.1.1,0,0,1,.108-.091h.246a.13.13,0,0,1,.082.029.094.094,0,0,1,.038.078v3.41c0,.072-.04.107-.12.107Z" transform="translate(802.509 -447.512)" fill="#fff"/>
    <path id="Tracciato_13" data-name="Tracciato 13" d="M-526.7,526.2c0-.078.037-.117.112-.117h1.14a1.919,1.919,0,0,1,.5.064,1.814,1.814,0,0,1,.439.181,1.737,1.737,0,0,1,.366.283,1.8,1.8,0,0,1,.28.368,1.839,1.839,0,0,1,.179.434,1.845,1.845,0,0,1,.063.487,1.769,1.769,0,0,1-.065.482,1.805,1.805,0,0,1-.183.432,1.794,1.794,0,0,1-.284.366,1.822,1.822,0,0,1-.369.282,1.849,1.849,0,0,1-.437.182,1.82,1.82,0,0,1-.488.065h-1.14a.147.147,0,0,1-.078-.021.089.089,0,0,1-.034-.082Zm1.24,3.041a1.361,1.361,0,0,0,.549-.11,1.357,1.357,0,0,0,.433-.3,1.352,1.352,0,0,0,.284-.436,1.366,1.366,0,0,0,.1-.527,1.331,1.331,0,0,0-.107-.542,1.261,1.261,0,0,0-.292-.417,1.309,1.309,0,0,0-.431-.269,1.451,1.451,0,0,0-.527-.1h-.784v2.692Z" transform="translate(794.129 -447.512)" fill="#fff"/>
    <path id="Tracciato_14" data-name="Tracciato 14" d="M-514.912,529.613a.154.154,0,0,1-.049.066.127.127,0,0,1-.08.025h-.259c-.075,0-.112-.029-.112-.085a.239.239,0,0,1,0-.028.143.143,0,0,1,0-.021l.005-.017,1.408-3.383.012-.028a.125.125,0,0,1,.02-.029.1.1,0,0,1,.036-.023.16.16,0,0,1,.062-.01h.161a.155.155,0,0,1,.06.01.106.106,0,0,1,.035.023.136.136,0,0,1,.02.029l.012.028,1.4,3.383.005.025,0,.023a.1.1,0,0,1,0,.019c0,.057-.038.085-.112.085h-.258a.128.128,0,0,1-.081-.025.154.154,0,0,1-.049-.066l-.269-.671h-1.714q-.086.217-.156.393c-.047.117-.082.21-.105.278m.457-1.145h1.33l-.659-1.67Z" transform="translate(786.401 -447.512)" fill="#fff"/>
    <path id="Tracciato_15" data-name="Tracciato 15" d="M-500.872,526.278a.179.179,0,0,1,.044.045.094.094,0,0,1,.017.053.089.089,0,0,1-.02.058l-.129.215a.112.112,0,0,1-.085.059.1.1,0,0,1-.038-.009.215.215,0,0,1-.048-.028,1.444,1.444,0,0,0-.37-.19,1.531,1.531,0,0,0-.409-.078,1.469,1.469,0,0,0-.581.113,1.467,1.467,0,0,0-.46.305,1.4,1.4,0,0,0-.3.444,1.323,1.323,0,0,0-.11.533,1.34,1.34,0,0,0,.112.55,1.371,1.371,0,0,0,.3.435,1.376,1.376,0,0,0,.439.286,1.377,1.377,0,0,0,.526.1,1.379,1.379,0,0,0,.2-.015,1.137,1.137,0,0,0,.2-.05,1.916,1.916,0,0,0,.216-.091,2.5,2.5,0,0,0,.239-.135.161.161,0,0,1,.075-.027c.029,0,.056.02.08.061l.139.229a.127.127,0,0,1,.017.059.1.1,0,0,1-.059.092,1.9,1.9,0,0,1-.505.26,1.839,1.839,0,0,1-.6.094,1.853,1.853,0,0,1-.5-.066,1.818,1.818,0,0,1-.444-.188,1.882,1.882,0,0,1-.376-.292,1.845,1.845,0,0,1-.291-.376,1.854,1.854,0,0,1-.186-.444,1.845,1.845,0,0,1-.066-.5,1.834,1.834,0,0,1,.066-.494,1.839,1.839,0,0,1,.188-.446,1.905,1.905,0,0,1,.292-.378,1.809,1.809,0,0,1,.377-.292,1.914,1.914,0,0,1,.445-.188,1.816,1.816,0,0,1,.5-.068,1.83,1.83,0,0,1,.578.091,1.945,1.945,0,0,1,.518.263" transform="translate(778.476 -447.406)" fill="#fff"/>
    <path id="Tracciato_16" data-name="Tracciato 16" d="M-492.529,529.613a.157.157,0,0,1-.049.066.127.127,0,0,1-.08.025h-.259c-.075,0-.112-.029-.112-.085a.225.225,0,0,1,0-.028.131.131,0,0,1,0-.021l.005-.017,1.408-3.383.012-.028a.125.125,0,0,1,.02-.029.1.1,0,0,1,.036-.023.16.16,0,0,1,.062-.01h.161a.156.156,0,0,1,.06.01.1.1,0,0,1,.035.023.126.126,0,0,1,.02.029l.012.028,1.4,3.383.005.025,0,.023a.076.076,0,0,1,0,.019c0,.057-.038.085-.112.085h-.258a.127.127,0,0,1-.081-.025.153.153,0,0,1-.049-.066l-.269-.671h-1.713q-.085.217-.156.393t-.1.278m.456-1.145h1.33l-.659-1.67Z" transform="translate(771.081 -447.512)" fill="#fff"/>
    <path id="Tracciato_17" data-name="Tracciato 17" d="M-480.726,526.079a.126.126,0,0,1,.079.027.109.109,0,0,1,.04.081v.246a.129.129,0,0,1-.029.084.111.111,0,0,1-.09.035h-1.016v3.039a.117.117,0,0,1-.029.078.1.1,0,0,1-.083.034h-.246a.113.113,0,0,1-.078-.031.106.106,0,0,1-.034-.081v-3.039h-1.02a.116.116,0,0,1-.081-.029.118.118,0,0,1-.032-.09v-.246a.1.1,0,0,1,.032-.078.114.114,0,0,1,.081-.029Z" transform="translate(764.453 -447.512)" fill="#fff"/>
    <path id="Tracciato_18" data-name="Tracciato 18" d="M-472.121,525.924a1.844,1.844,0,0,1,.494.066,1.856,1.856,0,0,1,.444.188,1.93,1.93,0,0,1,.377.292,1.8,1.8,0,0,1,.292.379,1.916,1.916,0,0,1,.188.448,1.841,1.841,0,0,1,.067.5,1.833,1.833,0,0,1-.066.495,1.809,1.809,0,0,1-.188.444,1.9,1.9,0,0,1-.292.376,1.844,1.844,0,0,1-.377.29,1.872,1.872,0,0,1-.447.187,1.879,1.879,0,0,1-.5.066,1.864,1.864,0,0,1-.5-.066,1.818,1.818,0,0,1-.444-.188,1.883,1.883,0,0,1-.376-.292,1.852,1.852,0,0,1-.291-.376,1.854,1.854,0,0,1-.186-.444,1.844,1.844,0,0,1-.066-.5,1.831,1.831,0,0,1,.066-.494,1.849,1.849,0,0,1,.188-.446,1.9,1.9,0,0,1,.292-.378,1.814,1.814,0,0,1,.377-.292,1.923,1.923,0,0,1,.446-.188,1.817,1.817,0,0,1,.5-.068m-1.4,1.858a1.358,1.358,0,0,0,.05.37,1.425,1.425,0,0,0,.14.332,1.365,1.365,0,0,0,.217.282,1.373,1.373,0,0,0,.282.217,1.425,1.425,0,0,0,.332.14,1.361,1.361,0,0,0,.37.05,1.363,1.363,0,0,0,.368-.05,1.392,1.392,0,0,0,.332-.14,1.394,1.394,0,0,0,.281-.217,1.376,1.376,0,0,0,.217-.282,1.426,1.426,0,0,0,.14-.332,1.345,1.345,0,0,0,.05-.37,1.337,1.337,0,0,0-.11-.541,1.419,1.419,0,0,0-.3-.44,1.411,1.411,0,0,0-.441-.3,1.342,1.342,0,0,0-.541-.11,1.349,1.349,0,0,0-.37.05,1.425,1.425,0,0,0-.332.14,1.383,1.383,0,0,0-.282.217,1.39,1.39,0,0,0-.217.281,1.4,1.4,0,0,0-.14.332,1.365,1.365,0,0,0-.05.369" transform="translate(758.047 -447.406)" fill="#fff"/>
    <path id="Tracciato_19" data-name="Tracciato 19" d="M-452.486,529.7a.114.114,0,0,1-.093-.054l-2.131-2.856v2.8c0,.072-.038.107-.112.107h-.246a.1.1,0,0,1-.107-.107v-3.4a.114.114,0,0,1,.029-.081.1.1,0,0,1,.078-.032h.327a.121.121,0,0,1,.1.054l2.077,2.761V526.17a.1.1,0,0,1,.108-.091h.246a.131.131,0,0,1,.082.029.094.094,0,0,1,.038.078v3.41c0,.072-.04.107-.12.107Z" transform="translate(745.173 -447.512)" fill="#fff"/>
    <path id="Tracciato_20" data-name="Tracciato 20" d="M-443.082,529.613a.157.157,0,0,1-.049.066.127.127,0,0,1-.081.025h-.259c-.075,0-.112-.029-.112-.085a.231.231,0,0,1,0-.028.13.13,0,0,1,0-.021c0-.007,0-.013,0-.017l1.408-3.383.012-.028a.125.125,0,0,1,.02-.029.1.1,0,0,1,.036-.023.16.16,0,0,1,.062-.01h.161a.155.155,0,0,1,.06.01.1.1,0,0,1,.035.023.125.125,0,0,1,.02.029l.012.028,1.4,3.383,0,.025c0,.008,0,.016.005.023a.091.091,0,0,1,0,.019c0,.057-.038.085-.112.085h-.258a.128.128,0,0,1-.081-.025.153.153,0,0,1-.049-.066l-.269-.671h-1.714q-.085.217-.156.393t-.1.278m.456-1.145h1.33l-.659-1.67Z" transform="translate(737.238 -447.512)" fill="#fff"/>
    <path id="Tracciato_21" data-name="Tracciato 21" d="M-432.17,529.7a.117.117,0,0,1-.084-.034.112.112,0,0,1-.035-.083v-.263a.171.171,0,0,1,.017-.066l2.326-2.7h-2.182a.1.1,0,0,1-.117-.115v-.251c0-.072.039-.108.117-.108h2.712a.118.118,0,0,1,.081.031.1.1,0,0,1,.034.082v.268a.153.153,0,0,1-.022.076l-2.3,2.695h2.214a.12.12,0,0,1,.08.027.109.109,0,0,1,.032.088v.241a.121.121,0,0,1-.032.081.1.1,0,0,1-.08.036Z" transform="translate(729.509 -447.512)" fill="#fff"/>
    <path id="Tracciato_22" data-name="Tracciato 22" d="M-421.005,526.187a.11.11,0,0,1,.028-.076.1.1,0,0,1,.079-.032h.254a.117.117,0,0,1,.078.029.1.1,0,0,1,.034.079v3.41c0,.071-.037.107-.112.107h-.254a.1.1,0,0,1-.107-.107Z" transform="translate(721.785 -447.512)" fill="#fff"/>
    <path id="Tracciato_23" data-name="Tracciato 23" d="M-415.505,525.924a1.843,1.843,0,0,1,.494.066,1.856,1.856,0,0,1,.444.188,1.93,1.93,0,0,1,.377.292,1.8,1.8,0,0,1,.292.379,1.914,1.914,0,0,1,.188.448,1.841,1.841,0,0,1,.067.5,1.845,1.845,0,0,1-.066.495,1.823,1.823,0,0,1-.188.444,1.906,1.906,0,0,1-.292.376,1.842,1.842,0,0,1-.377.29,1.866,1.866,0,0,1-.447.187,1.879,1.879,0,0,1-.5.066,1.865,1.865,0,0,1-.5-.066,1.818,1.818,0,0,1-.444-.188,1.882,1.882,0,0,1-.376-.292,1.851,1.851,0,0,1-.291-.376,1.854,1.854,0,0,1-.187-.444,1.859,1.859,0,0,1-.066-.5,1.845,1.845,0,0,1,.066-.494,1.847,1.847,0,0,1,.188-.446,1.9,1.9,0,0,1,.292-.378,1.815,1.815,0,0,1,.377-.292,1.924,1.924,0,0,1,.446-.188,1.817,1.817,0,0,1,.5-.068m-1.4,1.858a1.346,1.346,0,0,0,.05.37,1.411,1.411,0,0,0,.14.332,1.367,1.367,0,0,0,.217.282,1.374,1.374,0,0,0,.282.217,1.426,1.426,0,0,0,.332.14,1.361,1.361,0,0,0,.37.05,1.363,1.363,0,0,0,.368-.05,1.4,1.4,0,0,0,.332-.14,1.4,1.4,0,0,0,.281-.217,1.366,1.366,0,0,0,.217-.282,1.428,1.428,0,0,0,.14-.332,1.346,1.346,0,0,0,.05-.37,1.337,1.337,0,0,0-.11-.541,1.418,1.418,0,0,0-.3-.44,1.412,1.412,0,0,0-.441-.3,1.342,1.342,0,0,0-.541-.11,1.349,1.349,0,0,0-.37.05,1.426,1.426,0,0,0-.332.14,1.384,1.384,0,0,0-.282.217,1.392,1.392,0,0,0-.217.281,1.391,1.391,0,0,0-.14.332,1.353,1.353,0,0,0-.05.369" transform="translate(719.297 -447.406)" fill="#fff"/>
    <path id="Tracciato_24" data-name="Tracciato 24" d="M-400.719,529.7a.114.114,0,0,1-.093-.054l-2.131-2.856v2.8c0,.072-.038.107-.112.107h-.246a.1.1,0,0,1-.107-.107v-3.4a.114.114,0,0,1,.029-.081.1.1,0,0,1,.078-.032h.327a.121.121,0,0,1,.1.054l2.077,2.761V526.17a.1.1,0,0,1,.108-.091h.246a.13.13,0,0,1,.082.029.094.094,0,0,1,.038.078v3.41c0,.072-.04.107-.12.107Z" transform="translate(709.742 -447.512)" fill="#fff"/>
    <path id="Tracciato_25" data-name="Tracciato 25" d="M-391.315,529.613a.157.157,0,0,1-.049.066.127.127,0,0,1-.08.025h-.259c-.075,0-.112-.029-.112-.085a.232.232,0,0,1,0-.028.13.13,0,0,1,0-.021c0-.007,0-.013,0-.017l1.408-3.383.012-.028a.126.126,0,0,1,.02-.029.1.1,0,0,1,.036-.023.16.16,0,0,1,.062-.01h.161a.155.155,0,0,1,.06.01.1.1,0,0,1,.035.023.126.126,0,0,1,.02.029l.012.028,1.4,3.383,0,.025c0,.008,0,.016.005.023a.093.093,0,0,1,0,.019c0,.057-.038.085-.112.085h-.258a.128.128,0,0,1-.081-.025.154.154,0,0,1-.049-.066l-.269-.671h-1.714q-.085.217-.156.393t-.1.278m.456-1.145h1.33l-.659-1.67Z" transform="translate(701.806 -447.512)" fill="#fff"/>
    <path id="Tracciato_26" data-name="Tracciato 26" d="M-377.591,529.23a.106.106,0,0,1,.076.03.112.112,0,0,1,.032.084v.251a.107.107,0,0,1-.029.076.1.1,0,0,1-.078.031h-2.074a.1.1,0,0,1-.108-.107v-3.41a.108.108,0,0,1,.029-.076.108.108,0,0,1,.083-.032h.251a.111.111,0,0,1,.077.027.1.1,0,0,1,.031.081v3.044Z" transform="translate(693.564 -447.512)" fill="#fff"/>
    <path id="Tracciato_27" data-name="Tracciato 27" d="M-368.456,526.079q.112,0,.112.117v.241a.123.123,0,0,1-.028.081.108.108,0,0,1-.089.034h-1.967v1h1.547a.115.115,0,0,1,.076.026.106.106,0,0,1,.032.087v.249a.124.124,0,0,1-.027.078.1.1,0,0,1-.081.034h-1.547v1.2h1.977a.1.1,0,0,1,.112.115v.251a.1.1,0,0,1-.107.107h-2.348c-.072,0-.107-.034-.107-.1v-3.41q0-.112.107-.112Z" transform="translate(687.493 -447.512)" fill="#fff"/>
    <path id="Tracciato_28" data-name="Tracciato 28" d="M-356.271,529.613a.153.153,0,0,1-.049.066.127.127,0,0,1-.08.025h-.259c-.075,0-.112-.029-.112-.085a.232.232,0,0,1,0-.028.135.135,0,0,1,0-.021l.005-.017,1.408-3.383.012-.028a.126.126,0,0,1,.02-.029.1.1,0,0,1,.036-.023.16.16,0,0,1,.062-.01h.161a.155.155,0,0,1,.06.01.106.106,0,0,1,.035.023.136.136,0,0,1,.02.029l.012.028,1.4,3.383.005.025,0,.023a.1.1,0,0,1,0,.019c0,.057-.038.085-.112.085h-.258a.128.128,0,0,1-.081-.025.153.153,0,0,1-.049-.066l-.269-.671h-1.714q-.086.217-.156.393c-.047.117-.082.21-.105.278m.457-1.145h1.33l-.659-1.67Z" transform="translate(677.821 -447.512)" fill="#fff"/>
    <path id="Tracciato_29" data-name="Tracciato 29" d="M-344.42,528.2a1.351,1.351,0,0,0,.067.432.994.994,0,0,0,.2.348.927.927,0,0,0,.318.232,1.041,1.041,0,0,0,.43.084,1.105,1.105,0,0,0,.452-.085.88.88,0,0,0,.318-.233.981.981,0,0,0,.188-.348,1.445,1.445,0,0,0,.062-.43v-2.018a.1.1,0,0,1,.033-.076.113.113,0,0,1,.082-.032h.234a.141.141,0,0,1,.086.029.093.093,0,0,1,.039.079v2.084a1.522,1.522,0,0,1-.117.6,1.426,1.426,0,0,1-.321.471,1.479,1.479,0,0,1-.476.306,1.536,1.536,0,0,1-.58.11,1.441,1.441,0,0,1-.579-.117,1.513,1.513,0,0,1-.475-.321,1.52,1.52,0,0,1-.321-.475,1.441,1.441,0,0,1-.117-.579v-2.084a.115.115,0,0,1,.028-.072.091.091,0,0,1,.074-.035h.261a.12.12,0,0,1,.076.032.1.1,0,0,1,.039.076Z" transform="translate(669.694 -447.512)" fill="#fff"/>
    <path id="Tracciato_30" data-name="Tracciato 30" d="M-331.32,526.079a.126.126,0,0,1,.079.027.11.11,0,0,1,.04.081v.246a.129.129,0,0,1-.029.084.111.111,0,0,1-.09.035h-1.015v3.039a.118.118,0,0,1-.029.078.1.1,0,0,1-.083.034h-.246a.112.112,0,0,1-.078-.031.106.106,0,0,1-.034-.081v-3.039h-1.02a.116.116,0,0,1-.081-.029.118.118,0,0,1-.032-.09v-.246a.1.1,0,0,1,.032-.078.114.114,0,0,1,.081-.029Z" transform="translate(662.194 -447.512)" fill="#fff"/>
    <path id="Tracciato_31" data-name="Tracciato 31" d="M-322.715,525.924a1.842,1.842,0,0,1,.494.066,1.855,1.855,0,0,1,.444.188,1.929,1.929,0,0,1,.377.292,1.8,1.8,0,0,1,.292.379,1.914,1.914,0,0,1,.188.448,1.829,1.829,0,0,1,.067.5,1.846,1.846,0,0,1-.066.495,1.821,1.821,0,0,1-.188.444,1.906,1.906,0,0,1-.292.376,1.843,1.843,0,0,1-.377.29,1.869,1.869,0,0,1-.447.187,1.883,1.883,0,0,1-.5.066,1.865,1.865,0,0,1-.5-.066,1.818,1.818,0,0,1-.444-.188,1.882,1.882,0,0,1-.376-.292,1.852,1.852,0,0,1-.291-.376,1.853,1.853,0,0,1-.186-.444,1.856,1.856,0,0,1-.066-.5,1.843,1.843,0,0,1,.066-.494,1.848,1.848,0,0,1,.188-.446,1.889,1.889,0,0,1,.292-.378,1.815,1.815,0,0,1,.377-.292,1.923,1.923,0,0,1,.446-.188,1.818,1.818,0,0,1,.5-.068m-1.4,1.858a1.346,1.346,0,0,0,.05.37,1.413,1.413,0,0,0,.14.332,1.366,1.366,0,0,0,.217.282,1.373,1.373,0,0,0,.282.217,1.425,1.425,0,0,0,.332.14,1.36,1.36,0,0,0,.37.05,1.367,1.367,0,0,0,.369-.05,1.4,1.4,0,0,0,.332-.14,1.4,1.4,0,0,0,.281-.217,1.377,1.377,0,0,0,.217-.282,1.439,1.439,0,0,0,.14-.332,1.346,1.346,0,0,0,.05-.37,1.342,1.342,0,0,0-.11-.541,1.419,1.419,0,0,0-.3-.44,1.412,1.412,0,0,0-.441-.3,1.342,1.342,0,0,0-.541-.11,1.349,1.349,0,0,0-.37.05,1.425,1.425,0,0,0-.332.14,1.383,1.383,0,0,0-.282.217,1.391,1.391,0,0,0-.217.281,1.392,1.392,0,0,0-.14.332,1.353,1.353,0,0,0-.05.369" transform="translate(655.788 -447.406)" fill="#fff"/>
    <path id="Tracciato_32" data-name="Tracciato 32" d="M-307.929,529.7a.113.113,0,0,1-.093-.054l-2.131-2.856v2.8c0,.072-.038.107-.112.107h-.246a.1.1,0,0,1-.107-.107v-3.4a.114.114,0,0,1,.029-.081.1.1,0,0,1,.078-.032h.327a.122.122,0,0,1,.1.054l2.077,2.761V526.17a.1.1,0,0,1,.108-.091h.246a.13.13,0,0,1,.082.029.094.094,0,0,1,.038.078v3.41c0,.072-.04.107-.12.107Z" transform="translate(646.233 -447.512)" fill="#fff"/>
    <path id="Tracciato_33" data-name="Tracciato 33" d="M-296.874,525.924a1.844,1.844,0,0,1,.494.066,1.856,1.856,0,0,1,.444.188,1.93,1.93,0,0,1,.377.292,1.8,1.8,0,0,1,.292.379,1.914,1.914,0,0,1,.188.448,1.842,1.842,0,0,1,.067.5,1.833,1.833,0,0,1-.066.495,1.808,1.808,0,0,1-.188.444,1.906,1.906,0,0,1-.292.376,1.842,1.842,0,0,1-.377.29,1.872,1.872,0,0,1-.447.187,1.879,1.879,0,0,1-.5.066,1.865,1.865,0,0,1-.5-.066,1.818,1.818,0,0,1-.444-.188,1.883,1.883,0,0,1-.376-.292,1.853,1.853,0,0,1-.291-.376,1.855,1.855,0,0,1-.186-.444,1.857,1.857,0,0,1-.066-.5,1.844,1.844,0,0,1,.066-.494,1.847,1.847,0,0,1,.188-.446,1.9,1.9,0,0,1,.292-.378,1.815,1.815,0,0,1,.377-.292,1.922,1.922,0,0,1,.446-.188,1.816,1.816,0,0,1,.5-.068m-1.4,1.858a1.359,1.359,0,0,0,.05.37,1.428,1.428,0,0,0,.14.332,1.367,1.367,0,0,0,.217.282,1.374,1.374,0,0,0,.282.217,1.425,1.425,0,0,0,.332.14,1.361,1.361,0,0,0,.37.05,1.362,1.362,0,0,0,.368-.05,1.391,1.391,0,0,0,.332-.14,1.393,1.393,0,0,0,.281-.217,1.363,1.363,0,0,0,.217-.282,1.425,1.425,0,0,0,.14-.332,1.346,1.346,0,0,0,.05-.37,1.337,1.337,0,0,0-.11-.541,1.418,1.418,0,0,0-.3-.44,1.411,1.411,0,0,0-.441-.3,1.342,1.342,0,0,0-.541-.11,1.349,1.349,0,0,0-.37.05,1.425,1.425,0,0,0-.332.14,1.384,1.384,0,0,0-.282.217,1.392,1.392,0,0,0-.217.281,1.407,1.407,0,0,0-.14.332,1.366,1.366,0,0,0-.05.369" transform="translate(638.102 -447.406)" fill="#fff"/>
    <path id="Tracciato_34" data-name="Tracciato 34" d="M-283.394,529.547c-.036,0-.068-.03-.1-.091l-1.071-2.592-.286,2.731a.1.1,0,0,1-.107.107h-.254c-.075,0-.112-.036-.112-.107l.386-3.41a.1.1,0,0,1,.037-.078.125.125,0,0,1,.08-.029h.376a.11.11,0,0,1,.107.09l1.059,2.589,1.069-2.589a.133.133,0,0,1,.039-.067.091.091,0,0,1,.061-.023h.388a.1.1,0,0,1,.079.032.11.11,0,0,1,.028.076l.386,3.41a.1.1,0,0,1-.107.107h-.254c-.075,0-.112-.036-.112-.107l-.286-2.731-1.076,2.592c-.028.06-.06.091-.1.091Z" transform="translate(628.917 -447.512)" fill="#fff"/>
    <path id="Tracciato_35" data-name="Tracciato 35" d="M-268.945,525.924a1.845,1.845,0,0,1,.494.066,1.848,1.848,0,0,1,.444.188,1.93,1.93,0,0,1,.377.292,1.8,1.8,0,0,1,.292.379,1.942,1.942,0,0,1,.188.448,1.842,1.842,0,0,1,.067.5,1.833,1.833,0,0,1-.066.495,1.808,1.808,0,0,1-.188.444,1.93,1.93,0,0,1-.292.376,1.853,1.853,0,0,1-.377.29,1.88,1.88,0,0,1-.447.187,1.878,1.878,0,0,1-.5.066,1.869,1.869,0,0,1-.5-.066,1.823,1.823,0,0,1-.444-.188,1.9,1.9,0,0,1-.376-.292,1.864,1.864,0,0,1-.291-.376,1.867,1.867,0,0,1-.186-.444,1.845,1.845,0,0,1-.066-.5,1.832,1.832,0,0,1,.066-.494,1.847,1.847,0,0,1,.188-.446,1.9,1.9,0,0,1,.292-.378,1.826,1.826,0,0,1,.377-.292,1.917,1.917,0,0,1,.446-.188,1.814,1.814,0,0,1,.5-.068m-1.4,1.858a1.346,1.346,0,0,0,.05.37,1.413,1.413,0,0,0,.14.332,1.346,1.346,0,0,0,.217.282,1.374,1.374,0,0,0,.282.217,1.42,1.42,0,0,0,.332.14,1.359,1.359,0,0,0,.37.05,1.369,1.369,0,0,0,.369-.05,1.406,1.406,0,0,0,.332-.14,1.391,1.391,0,0,0,.281-.217,1.366,1.366,0,0,0,.217-.282,1.411,1.411,0,0,0,.14-.332,1.346,1.346,0,0,0,.05-.37,1.343,1.343,0,0,0-.11-.541,1.419,1.419,0,0,0-.3-.44,1.408,1.408,0,0,0-.441-.3,1.341,1.341,0,0,0-.54-.11,1.347,1.347,0,0,0-.37.05,1.42,1.42,0,0,0-.332.14,1.384,1.384,0,0,0-.282.217,1.37,1.37,0,0,0-.217.281,1.392,1.392,0,0,0-.14.332,1.353,1.353,0,0,0-.05.369" transform="translate(618.986 -447.406)" fill="#fff"/>
    <path id="Tracciato_36" data-name="Tracciato 36" d="M-249.8,529.23a.106.106,0,0,1,.076.03.112.112,0,0,1,.032.084v.251a.107.107,0,0,1-.029.076.1.1,0,0,1-.078.031h-2.075a.1.1,0,0,1-.107-.107v-3.41a.108.108,0,0,1,.029-.076.108.108,0,0,1,.083-.032h.251a.111.111,0,0,1,.077.027.1.1,0,0,1,.031.081v3.044Z" transform="translate(606.101 -447.512)" fill="#fff"/>
    <path id="Tracciato_37" data-name="Tracciato 37" d="M-243.625,529.613a.154.154,0,0,1-.049.066.126.126,0,0,1-.08.025h-.259c-.075,0-.112-.029-.112-.085a.232.232,0,0,1,0-.028.131.131,0,0,1,0-.021c0-.007,0-.013.005-.017l1.408-3.383.012-.028a.126.126,0,0,1,.02-.029.1.1,0,0,1,.035-.023.162.162,0,0,1,.063-.01h.161a.156.156,0,0,1,.06.01.106.106,0,0,1,.035.023.136.136,0,0,1,.02.029l.012.028,1.4,3.383.005.025c0,.008,0,.016,0,.023a.1.1,0,0,1,0,.019c0,.057-.038.085-.112.085h-.259a.127.127,0,0,1-.08-.025.151.151,0,0,1-.049-.066l-.269-.671h-1.714c-.057.145-.109.276-.156.393s-.082.21-.105.278m.457-1.145h1.33l-.659-1.67Z" transform="translate(600.722 -447.512)" fill="#fff"/>
    <path id="Tracciato_38" data-name="Tracciato 38" d="M-233.96,526.17q.034.093.1.245l.137.342q.076.189.163.405l.177.435.176.432c.058.142.111.272.16.393s.092.227.131.32.068.164.089.215c.02-.051.048-.122.086-.215l.131-.32.159-.393.173-.432.174-.435.162-.405.137-.342q.061-.152.1-.245a.156.156,0,0,1,.049-.066.127.127,0,0,1,.08-.025h.256c.077,0,.115.029.115.086a.08.08,0,0,1,0,.019c0,.006,0,.014,0,.022l-.005.024-1.4,3.383-.012.028a.111.111,0,0,1-.02.029.1.1,0,0,1-.035.023.167.167,0,0,1-.062.009h-.161a.159.159,0,0,1-.06-.009.1.1,0,0,1-.035-.023.111.111,0,0,1-.02-.029c-.005-.011-.009-.02-.012-.028l-1.408-3.383a.136.136,0,0,1-.005-.017.213.213,0,0,1-.005-.049c0-.057.038-.086.112-.086h.259a.127.127,0,0,1,.08.025.14.14,0,0,1,.046.066" transform="translate(594.105 -447.512)" fill="#fff"/>
    <path id="Tracciato_39" data-name="Tracciato 39" d="M-221.849,525.924a1.846,1.846,0,0,1,.494.066,1.856,1.856,0,0,1,.444.188,1.938,1.938,0,0,1,.377.292,1.8,1.8,0,0,1,.292.379,1.928,1.928,0,0,1,.188.448,1.841,1.841,0,0,1,.067.5,1.834,1.834,0,0,1-.066.495,1.809,1.809,0,0,1-.188.444,1.906,1.906,0,0,1-.292.376,1.852,1.852,0,0,1-.377.29,1.872,1.872,0,0,1-.447.187,1.879,1.879,0,0,1-.5.066,1.869,1.869,0,0,1-.5-.066,1.816,1.816,0,0,1-.444-.188,1.893,1.893,0,0,1-.376-.292,1.862,1.862,0,0,1-.29-.376,1.854,1.854,0,0,1-.186-.444,1.845,1.845,0,0,1-.066-.5,1.831,1.831,0,0,1,.066-.494,1.847,1.847,0,0,1,.188-.446,1.9,1.9,0,0,1,.292-.378,1.815,1.815,0,0,1,.377-.292,1.917,1.917,0,0,1,.446-.188,1.816,1.816,0,0,1,.5-.068m-1.4,1.858a1.359,1.359,0,0,0,.05.37,1.426,1.426,0,0,0,.14.332,1.366,1.366,0,0,0,.217.282,1.373,1.373,0,0,0,.282.217,1.426,1.426,0,0,0,.332.14,1.359,1.359,0,0,0,.37.05,1.363,1.363,0,0,0,.368-.05,1.392,1.392,0,0,0,.332-.14,1.393,1.393,0,0,0,.281-.217,1.364,1.364,0,0,0,.217-.282,1.426,1.426,0,0,0,.14-.332,1.359,1.359,0,0,0,.05-.37,1.342,1.342,0,0,0-.11-.541,1.418,1.418,0,0,0-.3-.44,1.415,1.415,0,0,0-.441-.3,1.342,1.342,0,0,0-.541-.11,1.347,1.347,0,0,0-.37.05,1.426,1.426,0,0,0-.332.14,1.384,1.384,0,0,0-.282.217,1.392,1.392,0,0,0-.217.281,1.406,1.406,0,0,0-.14.332,1.366,1.366,0,0,0-.05.369" transform="translate(586.752 -447.406)" fill="#fff"/>
    <path id="Tracciato_40" data-name="Tracciato 40" d="M-209.746,526.2q0-.117.108-.117h1.408a1.124,1.124,0,0,1,.454.092,1.174,1.174,0,0,1,.366.249,1.162,1.162,0,0,1,.245.369,1.149,1.149,0,0,1,.089.45,1.124,1.124,0,0,1-.048.329,1.163,1.163,0,0,1-.133.291,1.132,1.132,0,0,1-.205.241,1.171,1.171,0,0,1-.266.177l.644,1.32v.032c0,.051-.03.076-.09.076h-.3a.129.129,0,0,1-.117-.09l-.586-1.23a.289.289,0,0,1-.043,0h-.066l-.114,0h-.879V529.6c0,.072-.038.107-.112.107h-.254a.1.1,0,0,1-.108-.107Zm2.2,1.037a.653.653,0,0,0-.053-.259.7.7,0,0,0-.144-.22.7.7,0,0,0-.217-.153.649.649,0,0,0-.272-.057h-1.042v1.377h1.052a.639.639,0,0,0,.269-.056.675.675,0,0,0,.215-.151.7.7,0,0,0,.141-.22.674.674,0,0,0,.051-.261" transform="translate(577.191 -447.512)" fill="#fff"/>
    <path id="Tracciato_41" data-name="Tracciato 41" d="M-199.268,529.613a.151.151,0,0,1-.049.066.126.126,0,0,1-.08.025h-.259c-.075,0-.112-.029-.112-.085a.235.235,0,0,1,0-.028.133.133,0,0,1,0-.021c0-.007,0-.013.005-.017l1.408-3.383.012-.028a.126.126,0,0,1,.02-.029.1.1,0,0,1,.035-.023.163.163,0,0,1,.062-.01h.161a.154.154,0,0,1,.06.01.1.1,0,0,1,.036.023.136.136,0,0,1,.02.029l.012.028,1.4,3.383.005.025,0,.023a.1.1,0,0,1,0,.019c0,.057-.038.085-.112.085h-.259a.127.127,0,0,1-.08-.025.151.151,0,0,1-.049-.066l-.269-.671h-1.714c-.057.145-.109.276-.156.393s-.082.21-.105.278m.457-1.145h1.33l-.659-1.67Z" transform="translate(570.362 -447.512)" fill="#fff"/>
    <path id="Tracciato_42" data-name="Tracciato 42" d="M-187.465,526.079a.127.127,0,0,1,.079.027.11.11,0,0,1,.04.081v.246a.129.129,0,0,1-.029.084.111.111,0,0,1-.09.035h-1.015v3.039a.117.117,0,0,1-.029.078.1.1,0,0,1-.083.034h-.246a.112.112,0,0,1-.078-.031.106.106,0,0,1-.034-.081v-3.039h-1.02a.116.116,0,0,1-.081-.029.118.118,0,0,1-.032-.09v-.246a.1.1,0,0,1,.032-.078.114.114,0,0,1,.081-.029Z" transform="translate(563.734 -447.512)" fill="#fff"/>
    <path id="Tracciato_43" data-name="Tracciato 43" d="M-178.861,525.924a1.844,1.844,0,0,1,.494.066,1.856,1.856,0,0,1,.444.188,1.939,1.939,0,0,1,.377.292,1.8,1.8,0,0,1,.292.379,1.929,1.929,0,0,1,.188.448,1.841,1.841,0,0,1,.067.5,1.846,1.846,0,0,1-.066.495,1.822,1.822,0,0,1-.188.444,1.905,1.905,0,0,1-.292.376,1.852,1.852,0,0,1-.377.29,1.872,1.872,0,0,1-.447.187,1.879,1.879,0,0,1-.5.066,1.869,1.869,0,0,1-.5-.066,1.816,1.816,0,0,1-.444-.188,1.882,1.882,0,0,1-.376-.292,1.852,1.852,0,0,1-.291-.376,1.854,1.854,0,0,1-.187-.444,1.845,1.845,0,0,1-.066-.5,1.831,1.831,0,0,1,.066-.494,1.86,1.86,0,0,1,.188-.446,1.9,1.9,0,0,1,.292-.378,1.815,1.815,0,0,1,.377-.292,1.917,1.917,0,0,1,.446-.188,1.817,1.817,0,0,1,.5-.068m-1.4,1.858a1.346,1.346,0,0,0,.05.37,1.412,1.412,0,0,0,.14.332,1.366,1.366,0,0,0,.217.282,1.374,1.374,0,0,0,.282.217,1.425,1.425,0,0,0,.332.14,1.361,1.361,0,0,0,.37.05,1.367,1.367,0,0,0,.369-.05,1.4,1.4,0,0,0,.332-.14,1.394,1.394,0,0,0,.281-.217,1.365,1.365,0,0,0,.217-.282,1.426,1.426,0,0,0,.14-.332,1.358,1.358,0,0,0,.05-.37,1.338,1.338,0,0,0-.11-.541,1.419,1.419,0,0,0-.3-.44,1.415,1.415,0,0,0-.441-.3,1.342,1.342,0,0,0-.541-.11,1.349,1.349,0,0,0-.37.05,1.425,1.425,0,0,0-.332.14,1.384,1.384,0,0,0-.282.217,1.392,1.392,0,0,0-.217.281,1.392,1.392,0,0,0-.14.332,1.353,1.353,0,0,0-.05.369" transform="translate(557.329 -447.406)" fill="#fff"/>
    <path id="Tracciato_44" data-name="Tracciato 44" d="M-166.758,526.2q0-.117.108-.117h1.408a1.124,1.124,0,0,1,.454.092,1.174,1.174,0,0,1,.366.249,1.156,1.156,0,0,1,.246.369,1.149,1.149,0,0,1,.089.45,1.124,1.124,0,0,1-.048.329,1.163,1.163,0,0,1-.133.291,1.132,1.132,0,0,1-.205.241,1.171,1.171,0,0,1-.266.177l.644,1.32v.032c0,.051-.03.076-.09.076h-.3a.129.129,0,0,1-.117-.09l-.586-1.23a.289.289,0,0,1-.043,0h-.066l-.113,0h-.879V529.6c0,.072-.038.107-.112.107h-.254a.1.1,0,0,1-.108-.107Zm2.2,1.037a.658.658,0,0,0-.052-.259.711.711,0,0,0-.144-.22.7.7,0,0,0-.217-.153.649.649,0,0,0-.272-.057h-1.042v1.377h1.052a.639.639,0,0,0,.269-.056.671.671,0,0,0,.215-.151.705.705,0,0,0,.141-.22.674.674,0,0,0,.051-.261" transform="translate(547.769 -447.512)" fill="#fff"/>
    <path id="Tracciato_45" data-name="Tracciato 45" d="M-156.13,526.187a.11.11,0,0,1,.028-.076.1.1,0,0,1,.079-.032h.254a.118.118,0,0,1,.078.029.1.1,0,0,1,.034.079v3.41c0,.071-.037.107-.112.107h-.254a.1.1,0,0,1-.107-.107Z" transform="translate(540.495 -447.512)" fill="#fff"/>
    <path id="Tracciato_46" data-name="Tracciato 46" d="M-536.493,428.874a11.889,11.889,0,0,0-2.471-1.746q-1.384-.741-2.833-1.351t-2.833-1.153a21.838,21.838,0,0,1-2.471-1.137,6.816,6.816,0,0,1-1.746-1.3,2.365,2.365,0,0,1-.659-1.664,3.19,3.19,0,0,1,.444-1.729,3.414,3.414,0,0,1,1.17-1.137,5.483,5.483,0,0,1,1.614-.626,8.026,8.026,0,0,1,1.746-.2q.593,0,1.021.017a6.56,6.56,0,0,1,.824.082q.4.066.823.181t.987.279v2.733h5.078v-4h0v-1.9q-1.186-.56-2.257-.956a17.293,17.293,0,0,0-2.157-.642,18.381,18.381,0,0,0-2.224-.362,24.335,24.335,0,0,0-2.454-.116,17.142,17.142,0,0,0-3.937.461,11.193,11.193,0,0,0-3.541,1.482,8.022,8.022,0,0,0-2.554,2.635,7.4,7.4,0,0,0-.971,3.887,6.9,6.9,0,0,0,.659,3.146,7.384,7.384,0,0,0,1.729,2.24,11.194,11.194,0,0,0,2.438,1.614q1.367.675,2.8,1.219t2.817,1.054A14.52,14.52,0,0,1-543,431.049a6.118,6.118,0,0,1,1.73,1.5,3.356,3.356,0,0,1,.659,2.108,3.274,3.274,0,0,1-.478,1.862,3.654,3.654,0,0,1-1.219,1.136,4.835,4.835,0,0,1-1.7.577,12.2,12.2,0,0,1-1.878.148,17.278,17.278,0,0,1-5.172-.791q-2.536-.791-4.941-1.779l-.791,5.271a16.867,16.867,0,0,0,5.04,1.862,29.266,29.266,0,0,0,5.4.477,17.883,17.883,0,0,0,4.217-.527,13.455,13.455,0,0,0,3.953-1.631,9.5,9.5,0,0,0,2.932-2.833,7.28,7.28,0,0,0,1.153-4.135,6.844,6.844,0,0,0-.659-3.1,8.023,8.023,0,0,0-1.746-2.322" transform="translate(814.718 -369.539)" fill="#fff"/>
    <path id="Tracciato_47" data-name="Tracciato 47" d="M-358.027,414.523a9.939,9.939,0,0,0-3.756-1.664,21.237,21.237,0,0,0-4.711-.494,32.64,32.64,0,0,0-5.5.461,37.905,37.905,0,0,0-5.336,1.318l.008,1.823h0v4.3h5.078v-2.683a24.516,24.516,0,0,1,4.863-.479,15.709,15.709,0,0,1,2.256.165,6.462,6.462,0,0,1,2.059.643,4.123,4.123,0,0,1,1.515,1.334,3.794,3.794,0,0,1,.593,2.207v3.063q-1.779,0-3.838.017a36.567,36.567,0,0,0-4.1.263,24.486,24.486,0,0,0-3.953.807,10.638,10.638,0,0,0-3.36,1.631,7.876,7.876,0,0,0-2.323,2.75,8.931,8.931,0,0,0-.873,4.151,10.5,10.5,0,0,0,.791,4.282,7.72,7.72,0,0,0,2.19,2.916,9.126,9.126,0,0,0,3.36,1.68,16.1,16.1,0,0,0,4.3.543,12.083,12.083,0,0,0,4.825-.971,9.3,9.3,0,0,0,3.072-2.149v2.426h1.457v0h4.777V422.281a10.844,10.844,0,0,0-.906-4.694,8.058,8.058,0,0,0-2.487-3.064m-2.932,18.991a4.452,4.452,0,0,1-.61,2.356,5.576,5.576,0,0,1-1.564,1.68,6.834,6.834,0,0,1-2.158,1,9.014,9.014,0,0,1-2.388.329q-5.139,0-5.139-5.106a4.718,4.718,0,0,1,.791-2.915,4.91,4.91,0,0,1,2.042-1.565,8.835,8.835,0,0,1,2.783-.642q1.532-.116,3.015-.116h3.228Z" transform="translate(693.313 -369.682)" fill="#fff"/>
    <path id="Tracciato_48" data-name="Tracciato 48" d="M-447.9,417.586a7.408,7.408,0,0,0-2.092-2.949,8.888,8.888,0,0,0-3.278-1.713,15.208,15.208,0,0,0-4.282-.56,11.677,11.677,0,0,0-4.776,1.021,10.483,10.483,0,0,0-3.887,2.932v-3.425h-8.3v4.381h2.7v25.6h6.193V424.091q0-.432.027-.84a8.409,8.409,0,0,1,.7-2.983,5.831,5.831,0,0,1,.868-1.365q1.6-1.861,5.057-1.861a10.99,10.99,0,0,1,2.339.23,4.41,4.41,0,0,1,1.779.791,3.644,3.644,0,0,1,1.12,1.482,4.293,4.293,0,0,1,.233.724,7.017,7.017,0,0,1,.162,1.583v21.017h6.16V421.851a14.731,14.731,0,0,0-.083-1.583,10.033,10.033,0,0,0-.642-2.683" transform="translate(758.41 -369.681)" fill="#fff"/>
    <path id="Tracciato_49" data-name="Tracciato 49" d="M-279.334,416.972a4.355,4.355,0,0,1-1.417-.033,2.534,2.534,0,0,1-1.153-.527,1.492,1.492,0,0,1-.477-1.219V381.164H-291.6v4.382h3.031v29.647a7.151,7.151,0,0,0,.527,2.8,5.909,5.909,0,0,0,1.465,2.108,6.528,6.528,0,0,0,2.224,1.318,8.233,8.233,0,0,0,2.8.461,14.975,14.975,0,0,0,2.306-.181q.611-.1,1.221-.225v-4.756l0-.01a8.726,8.726,0,0,1-1.3.263" transform="translate(633.218 -348.327)" fill="#fff"/>
    <path id="Tracciato_50" data-name="Tracciato 50" d="M-224.946,414.079l-5.963,18.966-1.12,3.59-.824,3.72-.79-3.72-1.12-3.59-5.831-18.966h-7.676v4.344h2.438l8.7,25.619h8.3l10.508-29.963Z" transform="translate(603.558 -370.855)" fill="#fff"/>
    <path id="Tracciato_51" data-name="Tracciato 51" d="M-549.078,381.363a.186.186,0,0,1,.074.076.122.122,0,0,1-.009.111l-.5.7a.117.117,0,0,1-.069.057.131.131,0,0,1-.09-.025,1.115,1.115,0,0,0-.317-.168,1.136,1.136,0,0,0-.367-.059,1.077,1.077,0,0,0-.444.091,1.069,1.069,0,0,0-.349.25,1.15,1.15,0,0,0-.229.37,1.241,1.241,0,0,0-.082.452,1.233,1.233,0,0,0,.082.451,1.142,1.142,0,0,0,.229.367,1.079,1.079,0,0,0,.349.248,1.072,1.072,0,0,0,.444.091,1.14,1.14,0,0,0,.37-.06,1.125,1.125,0,0,0,.32-.169.136.136,0,0,1,.088-.026.118.118,0,0,1,.07.052l.5.723a.115.115,0,0,1,.009.109.188.188,0,0,1-.073.073,2.329,2.329,0,0,1-.595.287,2.194,2.194,0,0,1-.671.1,2.223,2.223,0,0,1-.6-.079,2.2,2.2,0,0,1-.536-.226,2.258,2.258,0,0,1-.454-.351,2.286,2.286,0,0,1-.351-.452,2.184,2.184,0,0,1-.226-.535,2.233,2.233,0,0,1-.079-.6,2.235,2.235,0,0,1,.079-.6,2.228,2.228,0,0,1,.226-.537,2.288,2.288,0,0,1,.351-.457,2.182,2.182,0,0,1,.454-.351,2.3,2.3,0,0,1,.536-.227,2.2,2.2,0,0,1,.6-.08,2.2,2.2,0,0,1,.665.1,2.272,2.272,0,0,1,.589.283" transform="translate(811.837 -348.201)" fill="#fff"/>
    <path id="Tracciato_52" data-name="Tracciato 52" d="M-516.779,383.231a2.235,2.235,0,0,1,.079-.6,2.255,2.255,0,0,1,.226-.537,2.293,2.293,0,0,1,.351-.457,2.2,2.2,0,0,1,.454-.351,2.3,2.3,0,0,1,.536-.227,2.2,2.2,0,0,1,.6-.08,2.205,2.205,0,0,1,.6.08,2.294,2.294,0,0,1,.538.227,2.225,2.225,0,0,1,.455.351,2.216,2.216,0,0,1,.352.457,2.335,2.335,0,0,1,.226.537,2.2,2.2,0,0,1,.081.6,2.2,2.2,0,0,1-.081.6,2.287,2.287,0,0,1-.226.535,2.221,2.221,0,0,1-.352.452,2.293,2.293,0,0,1-.455.351,2.2,2.2,0,0,1-.538.226,2.229,2.229,0,0,1-.6.08,2.226,2.226,0,0,1-.6-.08,2.21,2.21,0,0,1-.536-.226,2.261,2.261,0,0,1-.454-.351,2.3,2.3,0,0,1-.351-.452,2.21,2.21,0,0,1-.226-.535,2.233,2.233,0,0,1-.079-.6m1.137,0a1.247,1.247,0,0,0,.082.455,1.132,1.132,0,0,0,.23.369,1.081,1.081,0,0,0,.351.247,1.089,1.089,0,0,0,.446.089,1.1,1.1,0,0,0,.447-.089,1.077,1.077,0,0,0,.352-.247,1.131,1.131,0,0,0,.23-.369,1.24,1.24,0,0,0,.082-.455,1.246,1.246,0,0,0-.082-.454,1.136,1.136,0,0,0-.23-.371,1.081,1.081,0,0,0-.352-.25,1.086,1.086,0,0,0-.447-.091,1.075,1.075,0,0,0-.446.091,1.085,1.085,0,0,0-.351.25,1.137,1.137,0,0,0-.23.371,1.254,1.254,0,0,0-.082.454" transform="translate(787.336 -348.201)" fill="#fff"/>
    <path id="Tracciato_53" data-name="Tracciato 53" d="M-476.7,381.314a.135.135,0,0,1,.033-.091.119.119,0,0,1,.1-.039h.96a.208.208,0,0,1,.085.021.184.184,0,0,1,.076.071q.373.6.74,1.187t.743,1.187V381.3a.144.144,0,0,1,.047-.082.124.124,0,0,1,.082-.03H-473a.155.155,0,0,1,.1.034.116.116,0,0,1,.041.1v4.118a.105.105,0,0,1-.035.087.152.152,0,0,1-.1.028h-.937a.1.1,0,0,1-.068-.027.469.469,0,0,1-.062-.071l-.772-1.278q-.382-.631-.775-1.278v2.523a.14.14,0,0,1-.029.1.138.138,0,0,1-.106.033h-.834a.121.121,0,0,1-.1-.037.133.133,0,0,1-.031-.09Z" transform="translate(759.905 -348.341)" fill="#fff"/>
    <path id="Tracciato_54" data-name="Tracciato 54" d="M-437.878,381.321a.134.134,0,0,1,.034-.1.117.117,0,0,1,.081-.038h2.811a.129.129,0,0,1,.1.038.15.15,0,0,1,.034.1v.726a.155.155,0,0,1-.035.1.122.122,0,0,1-.1.045h-1.786v.91h1.319a.145.145,0,0,1,.094.031.119.119,0,0,1,.038.1v.7a.158.158,0,0,1-.034.1.108.108,0,0,1-.092.046h-1.325v1.345q0,.126-.135.126h-.9a.111.111,0,0,1-.106-.124Z" transform="translate(733.333 -348.342)" fill="#fff"/>
    <path id="Tracciato_55" data-name="Tracciato 55" d="M-402.35,383.933c.033.027.076.064.128.11a1.71,1.71,0,0,0,.178.137,1.5,1.5,0,0,0,.3.156.86.86,0,0,0,.308.056.8.8,0,0,0,.251-.034.418.418,0,0,0,.16-.09.319.319,0,0,0,.084-.129.477.477,0,0,0,.025-.156.228.228,0,0,0-.069-.163.708.708,0,0,0-.169-.128,1.433,1.433,0,0,0-.209-.1l-.188-.066a4.274,4.274,0,0,1-.617-.266,1.9,1.9,0,0,1-.441-.317,1.188,1.188,0,0,1-.264-.384,1.2,1.2,0,0,1-.088-.468,1.106,1.106,0,0,1,.11-.5,1.092,1.092,0,0,1,.314-.382,1.5,1.5,0,0,1,.492-.245,2.217,2.217,0,0,1,.643-.087,2.145,2.145,0,0,1,.512.06,1.943,1.943,0,0,1,.483.193c.067.039.129.08.189.122a1.913,1.913,0,0,1,.157.122.757.757,0,0,1,.107.112.162.162,0,0,1,.039.091.137.137,0,0,1-.019.071.461.461,0,0,1-.057.074l-.449.478a.143.143,0,0,1-.1.05.128.128,0,0,1-.075-.023.9.9,0,0,1-.075-.059l-.027-.024q-.059-.05-.131-.1a1.153,1.153,0,0,0-.154-.1,1.022,1.022,0,0,0-.173-.07.627.627,0,0,0-.185-.028.978.978,0,0,0-.182.016.524.524,0,0,0-.15.051.287.287,0,0,0-.1.093.247.247,0,0,0-.038.139.248.248,0,0,0,.041.143.408.408,0,0,0,.123.111,1.138,1.138,0,0,0,.2.1q.122.045.284.1.311.1.574.216a1.937,1.937,0,0,1,.454.267,1.1,1.1,0,0,1,.3.369,1.155,1.155,0,0,1,.107.52,1.286,1.286,0,0,1-.132.586,1.334,1.334,0,0,1-.363.448,1.7,1.7,0,0,1-.542.287,2.153,2.153,0,0,1-.67.1,1.9,1.9,0,0,1-.664-.121,2.568,2.568,0,0,1-.608-.324,1.551,1.551,0,0,1-.2-.168c-.054-.055-.1-.1-.128-.133l-.009-.009a.018.018,0,0,0-.006-.007l-.006,0s0-.007-.006-.007l-.006,0a.209.209,0,0,1-.068-.118.168.168,0,0,1,.068-.112l.508-.485a.194.194,0,0,1,.1-.044.109.109,0,0,1,.056.017.561.561,0,0,1,.07.053" transform="translate(709.566 -348.137)" fill="#fff"/>
    <path id="Tracciato_56" data-name="Tracciato 56" d="M-366.133,381.3a.084.084,0,0,1,.019-.038.209.209,0,0,1,.04-.038.206.206,0,0,1,.05-.028.143.143,0,0,1,.05-.01h.752a.124.124,0,0,1,.085.031.393.393,0,0,1,.053.054l.074.168,1.542,3.977a.086.086,0,0,1-.009.1.141.141,0,0,1-.112.037h-.843a.183.183,0,0,1-.1-.025.159.159,0,0,1-.057-.084q-.059-.15-.115-.3l-.111-.3h-1.56q-.056.15-.113.3t-.113.3a.147.147,0,0,1-.15.109h-.867a.143.143,0,0,1-.092-.029.07.07,0,0,1-.013-.088Zm.535,1.257q-.056.15-.113.323c-.038.116-.076.232-.113.35s-.075.233-.113.348-.076.222-.113.322h.9Z" transform="translate(685.327 -348.342)" fill="#fff"/>
    <path id="Tracciato_57" data-name="Tracciato 57" d="M-329.156,381.305a.129.129,0,0,1,.035-.091.125.125,0,0,1,.1-.038h.869a.137.137,0,0,1,.091.035.127.127,0,0,1,.044.094v3.2h1.615a.13.13,0,0,1,.091.035.125.125,0,0,1,.038.1v.772a.141.141,0,0,1-.034.091.125.125,0,0,1-.1.044h-2.623a.114.114,0,0,1-.129-.129Z" transform="translate(658.92 -348.335)" fill="#fff"/>
  </g>
</svg>
